<svg fill="#0d141a" viewBox="0 0 183.83899999999997 17.732999999999997" height="100%" width="100%" xmlns="http://www.w3.org/2000/svg"><path preserveAspectRatio="none" d="M6.07 17.36L0.16 17.36L0.16 15.87Q0.80 15.87 1.08 15.62Q1.36 15.36 1.44 14.89Q1.52 14.42 1.52 13.82L1.52 13.82L1.52 9.96Q1.52 9.54 1.54 9.03Q1.56 8.51 1.61 8.00L1.61 8.00Q1.24 8.03 0.75 8.04Q0.25 8.05 0 8.07L0 8.07L0 6.32Q1.06 6.32 1.79 6.21Q2.53 6.09 2.96 5.93Q3.38 5.77 3.54 5.63L3.54 5.63L4.67 5.63Q4.71 5.86 4.73 6.21Q4.74 6.55 4.76 6.78L4.76 6.78Q5.54 6.19 6.45 5.84Q7.36 5.50 8.16 5.50L8.16 5.50Q9.22 5.50 9.91 5.88Q10.60 6.26 11.02 7.01L11.02 7.01Q11.85 6.32 12.85 5.91Q13.85 5.50 14.77 5.50L14.77 5.50Q16.63 5.50 17.58 6.57Q18.54 7.64 18.54 10.28L18.54 10.28L18.54 13.66Q18.54 13.98 18.52 14.57Q18.49 15.16 18.45 15.69L18.45 15.69Q18.81 15.64 19.26 15.63Q19.71 15.62 19.94 15.62L19.94 15.62L19.94 17.36L14.12 17.36L14.12 15.87Q14.65 15.87 14.89 15.62Q15.13 15.36 15.20 14.89Q15.27 14.42 15.27 13.82L15.27 13.82L15.27 10.30Q15.25 8.81 14.78 8.23Q14.31 7.66 13.52 7.64L13.52 7.64Q12.93 7.61 12.41 7.84Q11.89 8.07 11.48 8.39L11.48 8.39Q11.59 8.85 11.64 9.41Q11.68 9.96 11.68 10.58L11.68 10.58Q11.68 11.36 11.68 12.12Q11.68 12.88 11.68 13.66L11.68 13.66Q11.68 13.98 11.66 14.57Q11.64 15.16 11.59 15.69L11.59 15.69Q11.96 15.64 12.40 15.63Q12.83 15.62 13.09 15.62L13.09 15.62L13.09 17.36L7.15 17.36L7.15 15.87Q7.75 15.87 8.02 15.62Q8.28 15.36 8.35 14.89Q8.42 14.42 8.42 13.82L8.42 13.82L8.39 10.23Q8.39 8.74 7.96 8.19Q7.52 7.64 6.74 7.61L6.74 7.61Q6.16 7.61 5.67 7.87Q5.17 8.12 4.78 8.46L4.78 8.46Q4.78 8.76 4.78 9.04Q4.78 9.31 4.78 9.61L4.78 9.61L4.78 13.66Q4.78 13.98 4.76 14.57Q4.74 15.16 4.69 15.69L4.69 15.69Q5.06 15.64 5.45 15.63Q5.84 15.62 6.07 15.62L6.07 15.62L6.07 17.36ZM21.32 17.36L21.32 15.87Q21.96 15.87 22.24 15.62Q22.52 15.36 22.60 14.89Q22.68 14.42 22.68 13.82L22.68 13.82L22.68 10.00Q22.68 9.59 22.70 9.05Q22.72 8.51 22.77 8.00L22.77 8.00Q22.40 8.03 21.91 8.04Q21.41 8.05 21.16 8.07L21.16 8.07L21.16 6.32Q22.22 6.32 22.95 6.21Q23.69 6.09 24.12 5.93Q24.54 5.77 24.70 5.63L24.70 5.63L25.94 5.63L25.94 13.66Q25.94 13.98 25.92 14.57Q25.90 15.16 25.85 15.69L25.85 15.69Q26.22 15.64 26.67 15.63Q27.12 15.62 27.35 15.62L27.35 15.62L27.35 17.36L21.32 17.36ZM24.20 3.82L24.20 3.82Q23.41 3.82 22.91 3.27Q22.40 2.71 22.40 1.93L22.40 1.93Q22.40 1.15 22.93 0.60Q23.46 0.05 24.17 0.05L24.17 0.05Q24.91 0.05 25.40 0.60Q25.90 1.15 25.90 1.93L25.90 1.93Q25.90 2.71 25.44 3.27Q24.98 3.82 24.20 3.82ZM34.13 17.73L34.13 17.73Q33.14 17.73 32.20 17.48Q31.26 17.23 30.73 16.84L30.73 16.84L30.77 17.53L29.03 17.53L28.93 13.57L30.43 13.57Q30.50 14.26 30.98 14.83Q31.46 15.41 32.25 15.74Q33.03 16.08 33.99 16.08L33.99 16.08Q34.38 16.08 34.74 15.96Q35.10 15.85 35.34 15.58Q35.58 15.32 35.58 14.93L35.58 14.93Q35.58 14.49 35.27 14.21Q34.96 13.94 34.37 13.68Q33.79 13.43 32.91 13.11L32.91 13.11Q32.20 12.83 31.48 12.53Q30.75 12.24 30.14 11.81Q29.53 11.38 29.16 10.75Q28.80 10.12 28.80 9.20L28.80 9.20Q28.80 8.53 29.05 7.88Q29.30 7.22 29.83 6.68Q30.36 6.14 31.18 5.82Q31.99 5.50 33.12 5.50L33.12 5.50Q33.74 5.50 34.53 5.69Q35.33 5.89 35.88 6.28L35.88 6.28L35.88 5.61L37.63 5.61L37.63 9.68L36.13 9.68Q36.00 8.88 35.57 8.30Q35.14 7.73 34.48 7.42Q33.81 7.11 32.98 7.11L32.98 7.11Q32.41 7.11 31.94 7.38Q31.46 7.66 31.46 8.33L31.46 8.33Q31.46 8.85 31.83 9.17Q32.20 9.48 32.84 9.68Q33.49 9.89 34.27 10.17L34.27 10.17Q35.44 10.56 36.35 11.09Q37.26 11.61 37.79 12.36Q38.32 13.11 38.32 14.19L38.32 14.19Q38.32 15.39 37.72 16.17Q37.12 16.95 36.17 17.34Q35.21 17.73 34.13 17.73ZM44.76 17.73L44.76 17.73Q43.38 17.73 42.54 17.20Q41.70 16.67 41.32 15.55Q40.94 14.42 40.94 12.65L40.94 12.65L40.94 10.00Q40.94 9.59 40.96 9.05Q40.99 8.51 41.01 8.00L41.01 8.00Q40.64 8.03 40.15 8.04Q39.65 8.05 39.40 8.07L39.40 8.07L39.40 6.32L39.63 6.32Q41.05 6.32 41.88 6.09Q42.71 5.86 42.94 5.63L42.94 5.63L44.21 5.63L44.21 12.67Q44.21 14.17 44.60 14.89Q44.99 15.62 45.84 15.62L45.84 15.62Q46.44 15.62 47.05 15.28Q47.66 14.95 48.05 14.51L48.05 14.51L48.05 10.00Q48.05 9.59 48.07 9.05Q48.09 8.51 48.14 8.00L48.14 8.00Q47.77 8.03 47.28 8.04Q46.78 8.05 46.53 8.07L46.53 8.07L46.53 6.32L47.08 6.32Q48.16 6.32 48.99 6.08Q49.82 5.84 50.05 5.63L50.05 5.63L51.31 5.63L51.31 13.66Q51.31 13.98 51.29 14.57Q51.27 15.16 51.22 15.69L51.22 15.69Q51.59 15.64 52.04 15.63Q52.49 15.62 52.72 15.62L52.72 15.62L52.72 17.36L48.35 17.36Q48.32 17.07 48.29 16.77Q48.25 16.47 48.21 16.17L48.21 16.17Q47.50 16.77 46.68 17.25Q45.86 17.73 44.76 17.73ZM59.66 17.73L59.66 17.73Q57.98 17.73 56.70 16.99Q55.41 16.24 54.69 14.87Q53.98 13.50 53.98 11.64L53.98 11.64Q53.98 10.03 54.69 8.62Q55.41 7.22 56.71 6.36Q58.01 5.50 59.73 5.50L59.73 5.50Q60.70 5.50 61.62 5.76Q62.54 6.03 63.28 6.67Q64.03 7.31 64.48 8.42Q64.93 9.52 64.91 11.18L64.91 11.18L57.36 11.32Q57.36 12.56 57.67 13.55Q57.98 14.54 58.70 15.11Q59.41 15.69 60.61 15.69L60.61 15.69Q61.06 15.69 61.65 15.52Q62.24 15.36 62.85 14.98Q63.46 14.60 63.99 13.96L63.99 13.96L65.02 14.93Q64.19 16.10 63.25 16.71Q62.31 17.32 61.38 17.53Q60.44 17.73 59.66 17.73ZM57.50 9.71L57.50 9.71L61.73 9.71Q61.71 8.74 61.47 8.18Q61.23 7.61 60.81 7.36Q60.40 7.11 59.85 7.11L59.85 7.11Q58.83 7.11 58.26 7.83Q57.68 8.56 57.50 9.71ZM72.61 17.36L66.58 17.36L66.58 15.87Q67.23 15.87 67.50 15.62Q67.78 15.36 67.86 14.89Q67.94 14.42 67.94 13.82L67.94 13.82L67.94 9.96Q67.94 9.54 67.96 9.03Q67.99 8.51 68.03 8.00L68.03 8.00Q67.67 8.03 67.17 8.04Q66.68 8.05 66.42 8.07L66.42 8.07L66.42 6.32Q67.48 6.32 68.22 6.21Q68.95 6.09 69.38 5.93Q69.80 5.77 69.97 5.63L69.97 5.63L71.09 5.63Q71.14 5.93 71.14 6.07Q71.14 6.21 71.15 6.34Q71.16 6.46 71.23 6.78L71.23 6.78Q71.69 6.42 72.29 6.13Q72.89 5.84 73.48 5.67Q74.08 5.50 74.54 5.50L74.54 5.50Q76.66 5.50 77.54 6.70Q78.43 7.91 78.43 10.58L78.43 10.58L78.43 13.66Q78.43 13.98 78.41 14.57Q78.38 15.16 78.34 15.69L78.34 15.69Q78.73 15.64 79.17 15.63Q79.60 15.62 79.83 15.62L79.83 15.62L79.83 17.36L73.81 17.36L73.81 15.87Q74.45 15.87 74.74 15.62Q75.03 15.36 75.11 14.89Q75.19 14.42 75.19 13.82L75.19 13.82L75.16 10.56Q75.16 9.06 74.74 8.34Q74.31 7.61 73.30 7.61L73.30 7.61Q72.73 7.61 72.16 7.87Q71.60 8.12 71.21 8.46L71.21 8.46Q71.21 8.79 71.21 9.12Q71.21 9.45 71.21 9.77L71.21 9.77L71.21 13.66Q71.21 13.98 71.19 14.57Q71.16 15.16 71.12 15.69L71.12 15.69Q71.48 15.64 71.93 15.63Q72.38 15.62 72.61 15.62L72.61 15.62L72.61 17.36ZM76.36 0.05L77.67 0.71Q77.19 2.14 76.41 2.77Q75.62 3.40 74.93 3.40L74.93 3.40Q74.31 3.40 73.86 3.17Q73.42 2.94 73.01 2.73Q72.61 2.51 72.15 2.51L72.15 2.51Q71.88 2.51 71.47 2.70Q71.07 2.90 70.72 3.45L70.72 3.45L69.44 2.69Q69.83 1.63 70.59 0.98Q71.35 0.32 72.13 0.32L72.13 0.32Q72.84 0.32 73.25 0.54Q73.67 0.76 74.03 0.98Q74.38 1.20 74.93 1.20L74.93 1.20Q75.32 1.20 75.69 0.89Q76.06 0.57 76.36 0.05L76.36 0.05ZM86.89 17.73L86.89 17.73Q85.24 17.73 83.90 17.02Q82.57 16.31 81.80 14.98Q81.03 13.66 81.03 11.87L81.03 11.87Q81.03 9.96 81.82 8.52Q82.62 7.08 83.94 6.29Q85.26 5.50 86.83 5.50L86.83 5.50Q88.48 5.50 89.79 6.21Q91.10 6.92 91.86 8.25Q92.62 9.57 92.62 11.41L92.62 11.41Q92.62 13.34 91.89 14.77Q91.15 16.19 89.86 16.96Q88.57 17.73 86.89 17.73ZM86.99 16.10L86.99 16.10Q87.91 16.08 88.38 15.46Q88.85 14.83 89.03 13.89Q89.22 12.95 89.22 11.98L89.22 11.98Q89.22 11.13 89.09 10.26Q88.96 9.38 88.69 8.67Q88.41 7.96 87.94 7.52Q87.47 7.08 86.78 7.11L86.78 7.11Q85.88 7.13 85.36 7.75Q84.85 8.37 84.63 9.30Q84.41 10.23 84.41 11.25L84.41 11.25Q84.41 12.42 84.66 13.55Q84.92 14.67 85.48 15.40Q86.04 16.12 86.99 16.10ZM99.57 17.73L99.57 17.73Q98.58 17.73 97.64 17.48Q96.69 17.23 96.16 16.84L96.16 16.84L96.21 17.53L94.46 17.53L94.37 13.57L95.86 13.57Q95.93 14.26 96.42 14.83Q96.90 15.41 97.68 15.74Q98.46 16.08 99.43 16.08L99.43 16.08Q99.82 16.08 100.18 15.96Q100.53 15.85 100.77 15.58Q101.02 15.32 101.02 14.93L101.02 14.93Q101.02 14.49 100.71 14.21Q100.40 13.94 99.81 13.68Q99.22 13.43 98.35 13.11L98.35 13.11Q97.64 12.83 96.91 12.53Q96.19 12.24 95.58 11.81Q94.97 11.38 94.60 10.75Q94.23 10.12 94.23 9.20L94.23 9.20Q94.23 8.53 94.48 7.88Q94.74 7.22 95.27 6.68Q95.80 6.14 96.61 5.82Q97.43 5.50 98.56 5.50L98.56 5.50Q99.18 5.50 99.97 5.69Q100.76 5.89 101.31 6.28L101.31 6.28L101.31 5.61L103.06 5.61L103.06 9.68L101.57 9.68Q101.43 8.88 101.00 8.30Q100.58 7.73 99.91 7.42Q99.25 7.11 98.42 7.11L98.42 7.11Q97.84 7.11 97.37 7.38Q96.90 7.66 96.90 8.33L96.90 8.33Q96.90 8.85 97.27 9.17Q97.64 9.48 98.28 9.68Q98.92 9.89 99.70 10.17L99.70 10.17Q100.88 10.56 101.79 11.09Q102.70 11.61 103.22 12.36Q103.75 13.11 103.75 14.19L103.75 14.19Q103.75 15.39 103.16 16.17Q102.56 16.95 101.60 17.34Q100.65 17.73 99.57 17.73ZM111.34 17.36L105.43 17.36L105.43 15.87Q106.08 15.87 106.35 15.62Q106.63 15.36 106.71 14.89Q106.79 14.42 106.79 13.82L106.79 13.82L106.79 9.96Q106.79 9.54 106.81 9.03Q106.84 8.51 106.88 8.00L106.88 8.00Q106.51 8.03 106.02 8.04Q105.52 8.05 105.27 8.07L105.27 8.07L105.27 6.32Q106.33 6.32 107.06 6.21Q107.80 6.09 108.23 5.93Q108.65 5.77 108.81 5.63L108.81 5.63L109.94 5.63Q109.99 5.86 110.00 6.21Q110.01 6.55 110.03 6.78L110.03 6.78Q110.81 6.19 111.72 5.84Q112.63 5.50 113.44 5.50L113.44 5.50Q114.49 5.50 115.18 5.88Q115.87 6.26 116.29 7.01L116.29 7.01Q117.12 6.32 118.12 5.91Q119.12 5.50 120.04 5.50L120.04 5.50Q121.90 5.50 122.85 6.57Q123.81 7.64 123.81 10.28L123.81 10.28L123.81 13.66Q123.81 13.98 123.79 14.57Q123.76 15.16 123.72 15.69L123.72 15.69Q124.09 15.64 124.53 15.63Q124.98 15.62 125.21 15.62L125.21 15.62L125.21 17.36L119.39 17.36L119.39 15.87Q119.92 15.87 120.16 15.62Q120.41 15.36 120.47 14.89Q120.54 14.42 120.54 13.82L120.54 13.82L120.54 10.30Q120.52 8.81 120.05 8.23Q119.58 7.66 118.80 7.64L118.80 7.64Q118.20 7.61 117.68 7.84Q117.16 8.07 116.75 8.39L116.75 8.39Q116.86 8.85 116.91 9.41Q116.95 9.96 116.95 10.58L116.95 10.58Q116.95 11.36 116.95 12.12Q116.95 12.88 116.95 13.66L116.95 13.66Q116.95 13.98 116.93 14.57Q116.91 15.16 116.86 15.69L116.86 15.69Q117.23 15.64 117.67 15.63Q118.11 15.62 118.36 15.62L118.36 15.62L118.36 17.36L112.42 17.36L112.42 15.87Q113.02 15.87 113.29 15.62Q113.55 15.36 113.62 14.89Q113.69 14.42 113.69 13.82L113.69 13.82L113.67 10.23Q113.67 8.74 113.23 8.19Q112.79 7.64 112.01 7.61L112.01 7.61Q111.44 7.61 110.94 7.87Q110.45 8.12 110.06 8.46L110.06 8.46Q110.06 8.76 110.06 9.04Q110.06 9.31 110.06 9.61L110.06 9.61L110.06 13.66Q110.06 13.98 110.03 14.57Q110.01 15.16 109.96 15.69L109.96 15.69Q110.33 15.64 110.72 15.63Q111.11 15.62 111.34 15.62L111.34 15.62L111.34 17.36ZM126.22 17.36L126.22 15.87Q126.87 15.87 127.16 15.62Q127.44 15.36 127.51 14.89Q127.58 14.42 127.58 13.82L127.58 13.82L127.58 4.37Q127.58 3.96 127.60 3.42Q127.63 2.87 127.67 2.37L127.67 2.37Q127.31 2.39 126.81 2.40Q126.32 2.41 126.06 2.44L126.06 2.44L126.06 0.69Q127.14 0.69 127.87 0.57Q128.59 0.46 129.02 0.30Q129.44 0.14 129.60 0L129.60 0L130.85 0L130.85 13.66Q130.85 13.98 130.82 14.57Q130.80 15.16 130.75 15.69L130.75 15.69Q131.15 15.64 131.58 15.63Q132.02 15.62 132.25 15.62L132.25 15.62L132.25 17.36L126.22 17.36ZM135.54 17.73L135.54 17.73Q134.78 17.73 134.31 17.20Q133.84 16.67 133.84 15.94L133.84 15.94Q133.84 15.20 134.34 14.67Q134.85 14.14 135.52 14.14L135.52 14.14Q136.23 14.14 136.70 14.67Q137.17 15.20 137.17 15.94L137.17 15.94Q137.17 16.67 136.72 17.20Q136.27 17.73 135.54 17.73ZM144.56 17.73L144.56 17.73Q143.01 17.73 141.73 17.04Q140.44 16.35 139.67 15.04Q138.90 13.73 138.90 11.87L138.90 11.87Q138.90 10.56 139.33 9.41Q139.77 8.26 140.56 7.38Q141.36 6.51 142.45 6.00Q143.54 5.50 144.88 5.50L144.88 5.50Q146.35 5.50 147.33 5.95Q148.30 6.39 148.80 7.12Q149.29 7.84 149.29 8.65L149.29 8.65Q149.29 9.31 148.89 9.83Q148.49 10.35 147.75 10.37L147.75 10.37Q146.88 10.40 146.53 9.88Q146.19 9.36 146.19 8.88L146.19 8.88Q146.19 8.67 146.26 8.38Q146.33 8.10 146.46 7.87L146.46 7.87Q146.30 7.52 145.98 7.36Q145.66 7.20 145.33 7.14Q144.99 7.08 144.78 7.11L144.78 7.11Q143.68 7.18 142.97 8.21Q142.25 9.25 142.25 11.20L142.25 11.20Q142.25 12.35 142.54 13.35Q142.83 14.35 143.50 15.00Q144.16 15.64 145.29 15.69L145.29 15.69Q146.26 15.71 147.18 15.23Q148.10 14.74 148.74 13.91L148.74 13.91L149.80 14.95Q148.97 16.10 148.07 16.70Q147.18 17.30 146.29 17.51Q145.41 17.73 144.56 17.73ZM156.68 17.73L156.68 17.73Q155.02 17.73 153.69 17.02Q152.35 16.31 151.58 14.98Q150.81 13.66 150.81 11.87L150.81 11.87Q150.81 9.96 151.60 8.52Q152.40 7.08 153.72 6.29Q155.04 5.50 156.61 5.50L156.61 5.50Q158.26 5.50 159.57 6.21Q160.88 6.92 161.64 8.25Q162.40 9.57 162.40 11.41L162.40 11.41Q162.40 13.34 161.67 14.77Q160.93 16.19 159.64 16.96Q158.35 17.73 156.68 17.73ZM156.77 16.10L156.77 16.10Q157.69 16.08 158.16 15.46Q158.63 14.83 158.81 13.89Q159.00 12.95 159.00 11.98L159.00 11.98Q159.00 11.13 158.87 10.26Q158.75 9.38 158.47 8.67Q158.19 7.96 157.72 7.52Q157.25 7.08 156.56 7.11L156.56 7.11Q155.66 7.13 155.15 7.75Q154.63 8.37 154.41 9.30Q154.19 10.23 154.19 11.25L154.19 11.25Q154.19 12.42 154.44 13.55Q154.70 14.67 155.26 15.40Q155.82 16.12 156.77 16.10ZM169.97 17.36L164.06 17.36L164.06 15.87Q164.70 15.87 164.98 15.62Q165.25 15.36 165.34 14.89Q165.42 14.42 165.42 13.82L165.42 13.82L165.42 9.96Q165.42 9.54 165.44 9.03Q165.46 8.51 165.51 8.00L165.51 8.00Q165.14 8.03 164.65 8.04Q164.15 8.05 163.90 8.07L163.90 8.07L163.90 6.32Q164.96 6.32 165.69 6.21Q166.43 6.09 166.85 5.93Q167.28 5.77 167.44 5.63L167.44 5.63L168.57 5.63Q168.61 5.86 168.62 6.21Q168.64 6.55 168.66 6.78L168.66 6.78Q169.44 6.19 170.35 5.84Q171.26 5.50 172.06 5.50L172.06 5.50Q173.12 5.50 173.81 5.88Q174.50 6.26 174.91 7.01L174.91 7.01Q175.74 6.32 176.74 5.91Q177.74 5.50 178.66 5.50L178.66 5.50Q180.53 5.50 181.48 6.57Q182.44 7.64 182.44 10.28L182.44 10.28L182.44 13.66Q182.44 13.98 182.41 14.57Q182.39 15.16 182.34 15.69L182.34 15.69Q182.71 15.64 183.16 15.63Q183.61 15.62 183.84 15.62L183.84 15.62L183.84 17.36L178.02 17.36L178.02 15.87Q178.55 15.87 178.79 15.62Q179.03 15.36 179.10 14.89Q179.17 14.42 179.17 13.82L179.17 13.82L179.17 10.30Q179.15 8.81 178.68 8.23Q178.20 7.66 177.42 7.64L177.42 7.64Q176.82 7.61 176.31 7.84Q175.79 8.07 175.38 8.39L175.38 8.39Q175.49 8.85 175.54 9.41Q175.58 9.96 175.58 10.58L175.58 10.58Q175.58 11.36 175.58 12.12Q175.58 12.88 175.58 13.66L175.58 13.66Q175.58 13.98 175.56 14.57Q175.54 15.16 175.49 15.69L175.49 15.69Q175.86 15.64 176.29 15.63Q176.73 15.62 176.98 15.62L176.98 15.62L176.98 17.36L171.05 17.36L171.05 15.87Q171.65 15.87 171.91 15.62Q172.18 15.36 172.25 14.89Q172.32 14.42 172.32 13.82L172.32 13.82L172.29 10.23Q172.29 8.74 171.86 8.19Q171.42 7.64 170.64 7.61L170.64 7.61Q170.06 7.61 169.57 7.87Q169.07 8.12 168.68 8.46L168.68 8.46Q168.68 8.76 168.68 9.04Q168.68 9.31 168.68 9.61L168.68 9.61L168.68 13.66Q168.68 13.98 168.66 14.57Q168.64 15.16 168.59 15.69L168.59 15.69Q168.96 15.64 169.35 15.63Q169.74 15.62 169.97 15.62L169.97 15.62L169.97 17.36Z"></path></svg>